<svg xmlns="http://www.w3.org/2000/svg" viewBox="0 0 512 512">
  <defs>
    <radialGradient id="bg" cx="50%" cy="40%" r="65%">
      <stop offset="0%" stop-color="#2a0d18"/>
      <stop offset="100%" stop-color="#0d0408"/>
    </radialGradient>
    <linearGradient id="heart" x1="0%" y1="0%" x2="100%" y2="100%">
      <stop offset="0%"  stop-color="#f5a88e"/>
      <stop offset="55%" stop-color="#e8836a"/>
      <stop offset="100%" stop-color="#c96848"/>
    </linearGradient>
    <filter id="glow" x="-30%" y="-30%" width="160%" height="160%">
      <feGaussianBlur stdDeviation="8" result="b"/>
      <feMerge><feMergeNode in="b"/><feMergeNode in="SourceGraphic"/></feMerge>
    </filter>
  </defs>
  <rect width="512" height="512" rx="96" fill="url(#bg)"/>
  <path filter="url(#glow)" fill="url(#heart)" d="M256 392c-8 0-15-3-21-8C129 297 80 247 80 184c0-49 38-86 86-86 28 0 55 13 72 35 17-22 44-35 72-35 48 0 86 37 86 86 0 63-49 113-155 200-6 5-13 8-21 8z"/>
</svg>
